<svg xmlns="http://www.w3.org/2000/svg" viewBox="0 0 140 96"><defs><style>.cls-1{fill:#3e3e3e;}.cls-2{fill:#a0a1a2;}.cls-3{fill:#fff;}.cls-4{fill:#7fba00;}.cls-5{fill:#b8d432;}.cls-6{fill:#3999c6;}.cls-7{fill:#59b4d9;}</style></defs><title>Azure Date Lake Storage Gen 2</title><g id="图层_5" data-name="图层 5"><path class="cls-1" d="M34.22,13.55V82.26c0,7.2,15.9,12.88,35.78,12.88V13.55Z"/><path class="cls-2" d="M69.43,95.32H70c19.69,0,35.78-5.86,35.78-12.87V13.55H69.43Z"/><path class="cls-3" d="M105.78,13.55c0,7.19-15.9,12.87-35.78,12.87S34.22,20.74,34.22,13.55C34.22,6.54,50.31.68,70,.68s35.78,5.86,35.78,12.87"/><path class="cls-4" d="M98.39,12.79c0,4.73-12.68,8.52-28.39,8.52s-28.39-3.79-28.39-8.52S54.29,4.27,70,4.27s28.39,3.79,28.39,8.52"/><path class="cls-5" d="M92.53,18.09c3.78-1.51,5.86-3.22,5.86-5.3,0-4.73-12.68-8.52-28.39-8.52S41.61,8.06,41.61,12.79c0,1.89,2.27,3.79,5.86,5.3C52.58,16,60.72,14.68,70,14.68c9.09,0,17.23,1.33,22.53,3.41"/><path class="cls-6" d="M69.43,95.32V61.25a14.8,14.8,0,0,1-12.49-7,14.49,14.49,0,0,1-12.31,7,14,14,0,0,1-10.41-4.54V82.45C34.22,89.46,49.93,95.14,69.43,95.32Z"/><path class="cls-7" d="M95,61.25a15.14,15.14,0,0,1-12.69-7c-2.46,4.16-7.57,6.81-12.87,7V95.32H70c19.69,0,35.78-5.86,35.78-12.87V56.52A14.7,14.7,0,0,1,95,61.25Z"/></g></svg>