<svg xmlns="http://www.w3.org/2000/svg" xmlns:xlink="http://www.w3.org/1999/xlink" viewBox="0 0 81 81" fill="#fff" fill-rule="evenodd" stroke="#000" stroke-linecap="round" stroke-linejoin="round"><use xlink:href="#A" x=".5" y=".5"/><symbol id="A" overflow="visible"><path d="M80 47.264h0v-19.37L58.024 47.07h-.578V27.893L35.47 47.07h0V6.78C35.47 3.487 27.952 0 18.12 0S0 3.293 0 6.78V80h35.084 0H80V47.264zM18.12 10.073c-7.132 0-12.915-1.743-12.915-3.68s5.783-3.68 12.916-3.68 12.916 1.55 12.916 3.68c0 1.937-5.783 3.68-12.916 3.68zm37.783 57.143h-8.867v-8.91h8.868v8.91zm-15.422 0h-8.868v-8.91h8.868v8.91zm22.362 0v-8.91h8.867v8.91h-8.867z" fill="#006fd4" stroke="none"/></symbol></svg>